<mxfile host="65bd71144e">
    <diagram id="o0mXXxS4oLoQkD0jAtlO" name="Page-1">
        <mxGraphModel dx="1243" dy="938" grid="1" gridSize="10" guides="1" tooltips="1" connect="1" arrows="1" fold="1" page="1" pageScale="1" pageWidth="850" pageHeight="1100" math="0" shadow="0">
            <root>
                <mxCell id="0"/>
                <mxCell id="1" parent="0"/>
                <mxCell id="2" value="Progetto Wiki" style="rounded=1;whiteSpace=wrap;html=1;fillColor=#000000;fontColor=#EAEAEA;" parent="1" vertex="1">
                    <mxGeometry x="790" y="50" width="120" height="60" as="geometry"/>
                </mxCell>
                <mxCell id="Q9y1Sk_SfGKJlz_eW2y1-17" style="edgeStyle=none;html=1;exitX=0.5;exitY=1;exitDx=0;exitDy=0;entryX=0.5;entryY=0;entryDx=0;entryDy=0;" edge="1" parent="1" source="3" target="Q9y1Sk_SfGKJlz_eW2y1-16">
                    <mxGeometry relative="1" as="geometry"/>
                </mxCell>
                <mxCell id="3" value="Analisi &amp;amp; Doc" style="rounded=1;whiteSpace=wrap;html=1;fillColor=#dae8fc;strokeColor=#6c8ebf;gradientColor=#7ea6e0;" vertex="1" parent="1">
                    <mxGeometry x="280" y="230" width="120" height="60" as="geometry"/>
                </mxCell>
                <mxCell id="Q9y1Sk_SfGKJlz_eW2y1-27" style="edgeStyle=none;html=1;exitX=0.5;exitY=1;exitDx=0;exitDy=0;entryX=0.5;entryY=0;entryDx=0;entryDy=0;" edge="1" parent="1" source="4" target="Q9y1Sk_SfGKJlz_eW2y1-26">
                    <mxGeometry relative="1" as="geometry"/>
                </mxCell>
                <mxCell id="4" value="Setup WebServer" style="rounded=1;whiteSpace=wrap;html=1;fillColor=#d5e8d4;strokeColor=#82b366;gradientColor=#97d077;" vertex="1" parent="1">
                    <mxGeometry x="450" y="230" width="120" height="60" as="geometry"/>
                </mxCell>
                <mxCell id="Q9y1Sk_SfGKJlz_eW2y1-37" style="edgeStyle=none;html=1;exitX=0.5;exitY=1;exitDx=0;exitDy=0;entryX=0.5;entryY=0;entryDx=0;entryDy=0;" edge="1" parent="1" source="5" target="Q9y1Sk_SfGKJlz_eW2y1-33">
                    <mxGeometry relative="1" as="geometry"/>
                </mxCell>
                <mxCell id="5" value="Setup server&amp;nbsp;&lt;span style=&quot;background-color: transparent;&quot;&gt;MySQL&lt;/span&gt;" style="rounded=1;whiteSpace=wrap;html=1;fillColor=#fff2cc;strokeColor=#d6b656;gradientColor=#ffd966;" vertex="1" parent="1">
                    <mxGeometry x="615" y="230" width="120" height="60" as="geometry"/>
                </mxCell>
                <mxCell id="Q9y1Sk_SfGKJlz_eW2y1-41" style="edgeStyle=none;html=1;exitX=0.5;exitY=1;exitDx=0;exitDy=0;entryX=0.5;entryY=0;entryDx=0;entryDy=0;" edge="1" parent="1" source="6" target="24">
                    <mxGeometry relative="1" as="geometry"/>
                </mxCell>
                <mxCell id="6" value="Creazione Frontend" style="rounded=1;whiteSpace=wrap;html=1;fillColor=#ffcd28;strokeColor=#d79b00;gradientColor=#ffa500;" vertex="1" parent="1">
                    <mxGeometry x="790" y="230" width="120" height="60" as="geometry"/>
                </mxCell>
                <mxCell id="30" style="edgeStyle=none;html=1;exitX=0.5;exitY=1;exitDx=0;exitDy=0;entryX=0.5;entryY=0;entryDx=0;entryDy=0;" edge="1" parent="1" source="7" target="28">
                    <mxGeometry relative="1" as="geometry"/>
                </mxCell>
                <mxCell id="7" value="Creazione Backend" style="rounded=1;whiteSpace=wrap;html=1;fillColor=#f5f5f5;strokeColor=#666666;gradientColor=#b3b3b3;" vertex="1" parent="1">
                    <mxGeometry x="950" y="230" width="120" height="60" as="geometry"/>
                </mxCell>
                <mxCell id="20" style="edgeStyle=none;html=1;exitX=0.5;exitY=1;exitDx=0;exitDy=0;entryX=0.5;entryY=0;entryDx=0;entryDy=0;" edge="1" parent="1" source="Q9y1Sk_SfGKJlz_eW2y1-7" target="16">
                    <mxGeometry relative="1" as="geometry"/>
                </mxCell>
                <mxCell id="Q9y1Sk_SfGKJlz_eW2y1-7" value="Creazione Database" style="rounded=1;whiteSpace=wrap;html=1;fillColor=#f8cecc;strokeColor=#b85450;gradientColor=#ea6b66;" vertex="1" parent="1">
                    <mxGeometry x="1100" y="230" width="120" height="60" as="geometry"/>
                </mxCell>
                <mxCell id="15" style="edgeStyle=none;html=1;exitX=0.5;exitY=1;exitDx=0;exitDy=0;entryX=0.5;entryY=0;entryDx=0;entryDy=0;" edge="1" parent="1" source="Q9y1Sk_SfGKJlz_eW2y1-8" target="13">
                    <mxGeometry relative="1" as="geometry"/>
                </mxCell>
                <mxCell id="Q9y1Sk_SfGKJlz_eW2y1-8" value="Gestione Articoli" style="rounded=1;whiteSpace=wrap;html=1;fillColor=#e6d0de;strokeColor=#996185;gradientColor=#d5739d;" vertex="1" parent="1">
                    <mxGeometry x="1260" y="230" width="120" height="60" as="geometry"/>
                </mxCell>
                <mxCell id="Q9y1Sk_SfGKJlz_eW2y1-11" value="" style="endArrow=none;html=1;exitX=0.5;exitY=0;exitDx=0;exitDy=0;" edge="1" parent="1">
                    <mxGeometry width="50" height="50" relative="1" as="geometry">
                        <mxPoint x="509" y="230" as="sourcePoint"/>
                        <mxPoint x="849" y="110" as="targetPoint"/>
                        <Array as="points">
                            <mxPoint x="509" y="170"/>
                            <mxPoint x="849" y="170"/>
                        </Array>
                    </mxGeometry>
                </mxCell>
                <mxCell id="Q9y1Sk_SfGKJlz_eW2y1-12" value="" style="endArrow=none;html=1;entryX=0.5;entryY=1;entryDx=0;entryDy=0;exitX=0.5;exitY=0;exitDx=0;exitDy=0;" edge="1" parent="1" source="3" target="2">
                    <mxGeometry width="50" height="50" relative="1" as="geometry">
                        <mxPoint x="530" y="150" as="sourcePoint"/>
                        <mxPoint x="580" y="100" as="targetPoint"/>
                        <Array as="points">
                            <mxPoint x="340" y="170"/>
                            <mxPoint x="850" y="170"/>
                        </Array>
                    </mxGeometry>
                </mxCell>
                <mxCell id="11" value="" style="endArrow=none;html=1;entryX=0.5;entryY=1;entryDx=0;entryDy=0;exitX=0.5;exitY=0;exitDx=0;exitDy=0;" edge="1" parent="1" source="7" target="2">
                    <mxGeometry width="50" height="50" relative="1" as="geometry">
                        <mxPoint x="690" y="520" as="sourcePoint"/>
                        <mxPoint x="740" y="470" as="targetPoint"/>
                        <Array as="points">
                            <mxPoint x="1010" y="170"/>
                            <mxPoint x="850" y="170"/>
                        </Array>
                    </mxGeometry>
                </mxCell>
                <mxCell id="Q9y1Sk_SfGKJlz_eW2y1-13" value="" style="endArrow=none;html=1;entryX=0.5;entryY=1;entryDx=0;entryDy=0;exitX=0.5;exitY=0;exitDx=0;exitDy=0;" edge="1" parent="1" source="Q9y1Sk_SfGKJlz_eW2y1-8" target="2">
                    <mxGeometry width="50" height="50" relative="1" as="geometry">
                        <mxPoint x="1210" y="130" as="sourcePoint"/>
                        <mxPoint x="1260" y="80" as="targetPoint"/>
                        <Array as="points">
                            <mxPoint x="1320" y="170"/>
                            <mxPoint x="850" y="170"/>
                        </Array>
                    </mxGeometry>
                </mxCell>
                <mxCell id="Q9y1Sk_SfGKJlz_eW2y1-14" value="" style="endArrow=none;html=1;entryX=0.5;entryY=1;entryDx=0;entryDy=0;exitX=0.5;exitY=0;exitDx=0;exitDy=0;" edge="1" parent="1" source="Q9y1Sk_SfGKJlz_eW2y1-7" target="2">
                    <mxGeometry width="50" height="50" relative="1" as="geometry">
                        <mxPoint x="1120" y="150" as="sourcePoint"/>
                        <mxPoint x="1170" y="100" as="targetPoint"/>
                        <Array as="points">
                            <mxPoint x="1160" y="170"/>
                            <mxPoint x="850" y="170"/>
                        </Array>
                    </mxGeometry>
                </mxCell>
                <mxCell id="12" value="" style="endArrow=none;html=1;entryX=0.5;entryY=1;entryDx=0;entryDy=0;exitX=0.5;exitY=0;exitDx=0;exitDy=0;" edge="1" parent="1" source="6" target="2">
                    <mxGeometry width="50" height="50" relative="1" as="geometry">
                        <mxPoint x="690" y="520" as="sourcePoint"/>
                        <mxPoint x="740" y="470" as="targetPoint"/>
                    </mxGeometry>
                </mxCell>
                <mxCell id="Q9y1Sk_SfGKJlz_eW2y1-15" value="" style="endArrow=none;html=1;exitX=0.5;exitY=0;exitDx=0;exitDy=0;entryX=0.5;entryY=1;entryDx=0;entryDy=0;" edge="1" parent="1" source="5" target="2">
                    <mxGeometry width="50" height="50" relative="1" as="geometry">
                        <mxPoint x="640" y="140" as="sourcePoint"/>
                        <mxPoint x="690" y="90" as="targetPoint"/>
                        <Array as="points">
                            <mxPoint x="675" y="170"/>
                            <mxPoint x="850" y="170"/>
                        </Array>
                    </mxGeometry>
                </mxCell>
                <mxCell id="Q9y1Sk_SfGKJlz_eW2y1-19" style="edgeStyle=none;html=1;exitX=0.5;exitY=1;exitDx=0;exitDy=0;entryX=0.5;entryY=0;entryDx=0;entryDy=0;" edge="1" parent="1" source="Q9y1Sk_SfGKJlz_eW2y1-16" target="Q9y1Sk_SfGKJlz_eW2y1-18">
                    <mxGeometry relative="1" as="geometry"/>
                </mxCell>
                <mxCell id="Q9y1Sk_SfGKJlz_eW2y1-16" value="Analisi RIchiesta" style="rounded=1;whiteSpace=wrap;html=1;fillColor=#dae8fc;strokeColor=#6c8ebf;" vertex="1" parent="1">
                    <mxGeometry x="280" y="340" width="120" height="60" as="geometry"/>
                </mxCell>
                <mxCell id="Q9y1Sk_SfGKJlz_eW2y1-21" style="edgeStyle=none;html=1;exitX=0.5;exitY=1;exitDx=0;exitDy=0;entryX=0.5;entryY=0;entryDx=0;entryDy=0;" edge="1" parent="1" source="Q9y1Sk_SfGKJlz_eW2y1-18" target="Q9y1Sk_SfGKJlz_eW2y1-20">
                    <mxGeometry relative="1" as="geometry"/>
                </mxCell>
                <mxCell id="Q9y1Sk_SfGKJlz_eW2y1-18" value="UML Casi d&#39;uso" style="rounded=1;whiteSpace=wrap;html=1;fillColor=#dae8fc;strokeColor=#6c8ebf;" vertex="1" parent="1">
                    <mxGeometry x="280" y="440" width="120" height="60" as="geometry"/>
                </mxCell>
                <mxCell id="Q9y1Sk_SfGKJlz_eW2y1-25" style="edgeStyle=none;html=1;exitX=0.5;exitY=1;exitDx=0;exitDy=0;" edge="1" parent="1" source="Q9y1Sk_SfGKJlz_eW2y1-20" target="Q9y1Sk_SfGKJlz_eW2y1-22">
                    <mxGeometry relative="1" as="geometry"/>
                </mxCell>
                <mxCell id="Q9y1Sk_SfGKJlz_eW2y1-20" value="Documentazione" style="rounded=1;whiteSpace=wrap;html=1;fillColor=#dae8fc;strokeColor=#6c8ebf;" vertex="1" parent="1">
                    <mxGeometry x="280" y="550" width="120" height="60" as="geometry"/>
                </mxCell>
                <mxCell id="Q9y1Sk_SfGKJlz_eW2y1-24" style="edgeStyle=none;html=1;exitX=0.5;exitY=1;exitDx=0;exitDy=0;" edge="1" parent="1" source="Q9y1Sk_SfGKJlz_eW2y1-22" target="Q9y1Sk_SfGKJlz_eW2y1-23">
                    <mxGeometry relative="1" as="geometry"/>
                </mxCell>
                <mxCell id="Q9y1Sk_SfGKJlz_eW2y1-22" value="WireFrame &amp;amp; Storyboard" style="rounded=1;whiteSpace=wrap;html=1;fillColor=#dae8fc;strokeColor=#6c8ebf;" vertex="1" parent="1">
                    <mxGeometry x="280" y="660" width="120" height="60" as="geometry"/>
                </mxCell>
                <mxCell id="Q9y1Sk_SfGKJlz_eW2y1-23" value="UML Classi/Componenti" style="rounded=1;whiteSpace=wrap;html=1;fillColor=#dae8fc;strokeColor=#6c8ebf;" vertex="1" parent="1">
                    <mxGeometry x="280" y="770" width="120" height="60" as="geometry"/>
                </mxCell>
                <mxCell id="Q9y1Sk_SfGKJlz_eW2y1-45" style="edgeStyle=none;html=1;exitX=0.5;exitY=1;exitDx=0;exitDy=0;entryX=0.5;entryY=0;entryDx=0;entryDy=0;" edge="1" parent="1" source="13" target="Q9y1Sk_SfGKJlz_eW2y1-44">
                    <mxGeometry relative="1" as="geometry"/>
                </mxCell>
                <mxCell id="13" value="scrittura articoli" style="rounded=1;whiteSpace=wrap;html=1;fillColor=#e1d5e7;strokeColor=#9673a6;" vertex="1" parent="1">
                    <mxGeometry x="1260" y="330" width="120" height="60" as="geometry"/>
                </mxCell>
                <mxCell id="21" style="edgeStyle=none;html=1;exitX=0.5;exitY=1;exitDx=0;exitDy=0;entryX=0.5;entryY=0;entryDx=0;entryDy=0;" edge="1" parent="1" source="16" target="17">
                    <mxGeometry relative="1" as="geometry"/>
                </mxCell>
                <mxCell id="16" value="Analisi dei dati da salvare" style="rounded=1;whiteSpace=wrap;html=1;fillColor=#f8cecc;strokeColor=#b85450;" vertex="1" parent="1">
                    <mxGeometry x="1100" y="330" width="120" height="60" as="geometry"/>
                </mxCell>
                <mxCell id="22" style="edgeStyle=none;html=1;exitX=0.5;exitY=1;exitDx=0;exitDy=0;" edge="1" parent="1" source="17" target="18">
                    <mxGeometry relative="1" as="geometry"/>
                </mxCell>
                <mxCell id="17" value="Schema ER" style="rounded=1;whiteSpace=wrap;html=1;fillColor=#f8cecc;strokeColor=#b85450;" vertex="1" parent="1">
                    <mxGeometry x="1100" y="420" width="120" height="60" as="geometry"/>
                </mxCell>
                <mxCell id="23" style="edgeStyle=none;html=1;exitX=0.5;exitY=1;exitDx=0;exitDy=0;entryX=0.5;entryY=0;entryDx=0;entryDy=0;" edge="1" parent="1" source="18" target="19">
                    <mxGeometry relative="1" as="geometry"/>
                </mxCell>
                <mxCell id="18" value="Schema logico" style="rounded=1;whiteSpace=wrap;html=1;fillColor=#f8cecc;strokeColor=#b85450;" vertex="1" parent="1">
                    <mxGeometry x="1100" y="510" width="120" height="60" as="geometry"/>
                </mxCell>
                <mxCell id="Q9y1Sk_SfGKJlz_eW2y1-29" style="edgeStyle=none;html=1;exitX=0.5;exitY=1;exitDx=0;exitDy=0;entryX=0.5;entryY=0;entryDx=0;entryDy=0;" edge="1" parent="1" source="Q9y1Sk_SfGKJlz_eW2y1-26" target="Q9y1Sk_SfGKJlz_eW2y1-28">
                    <mxGeometry relative="1" as="geometry"/>
                </mxCell>
                <mxCell id="Q9y1Sk_SfGKJlz_eW2y1-26" value="Installare Ubuntu" style="rounded=1;whiteSpace=wrap;html=1;fillColor=#d5e8d4;strokeColor=#82b366;" vertex="1" parent="1">
                    <mxGeometry x="450" y="340" width="120" height="60" as="geometry"/>
                </mxCell>
                <mxCell id="19" value="Creazione DataBase" style="rounded=1;whiteSpace=wrap;html=1;fillColor=#f8cecc;strokeColor=#b85450;" vertex="1" parent="1">
                    <mxGeometry x="1100" y="600" width="120" height="60" as="geometry"/>
                </mxCell>
                <mxCell id="Q9y1Sk_SfGKJlz_eW2y1-31" style="edgeStyle=none;html=1;exitX=0.5;exitY=1;exitDx=0;exitDy=0;entryX=0.5;entryY=0;entryDx=0;entryDy=0;" edge="1" parent="1" source="Q9y1Sk_SfGKJlz_eW2y1-28" target="Q9y1Sk_SfGKJlz_eW2y1-30">
                    <mxGeometry relative="1" as="geometry"/>
                </mxCell>
                <mxCell id="Q9y1Sk_SfGKJlz_eW2y1-28" value="Installare Apache" style="rounded=1;whiteSpace=wrap;html=1;fillColor=#d5e8d4;strokeColor=#82b366;" vertex="1" parent="1">
                    <mxGeometry x="450" y="440" width="120" height="60" as="geometry"/>
                </mxCell>
                <mxCell id="Q9y1Sk_SfGKJlz_eW2y1-30" value="Installare OpenSSL" style="rounded=1;whiteSpace=wrap;html=1;fillColor=#d5e8d4;strokeColor=#82b366;" vertex="1" parent="1">
                    <mxGeometry x="450" y="550" width="120" height="60" as="geometry"/>
                </mxCell>
                <mxCell id="Q9y1Sk_SfGKJlz_eW2y1-32" style="edgeStyle=none;html=1;exitX=0.5;exitY=1;exitDx=0;exitDy=0;entryX=0.5;entryY=0;entryDx=0;entryDy=0;" edge="1" parent="1" source="Q9y1Sk_SfGKJlz_eW2y1-33" target="Q9y1Sk_SfGKJlz_eW2y1-35">
                    <mxGeometry relative="1" as="geometry"/>
                </mxCell>
                <mxCell id="Q9y1Sk_SfGKJlz_eW2y1-33" value="Installare Ubuntu" style="rounded=1;whiteSpace=wrap;html=1;fillColor=#fff2cc;strokeColor=#d6b656;" vertex="1" parent="1">
                    <mxGeometry x="615" y="340" width="120" height="60" as="geometry"/>
                </mxCell>
                <mxCell id="Q9y1Sk_SfGKJlz_eW2y1-34" style="edgeStyle=none;html=1;exitX=0.5;exitY=1;exitDx=0;exitDy=0;entryX=0.5;entryY=0;entryDx=0;entryDy=0;" edge="1" parent="1" source="Q9y1Sk_SfGKJlz_eW2y1-35" target="Q9y1Sk_SfGKJlz_eW2y1-36">
                    <mxGeometry relative="1" as="geometry"/>
                </mxCell>
                <mxCell id="Q9y1Sk_SfGKJlz_eW2y1-35" value="Installare Apache" style="rounded=1;whiteSpace=wrap;html=1;fillColor=#fff2cc;strokeColor=#d6b656;" vertex="1" parent="1">
                    <mxGeometry x="615" y="440" width="120" height="60" as="geometry"/>
                </mxCell>
                <mxCell id="Q9y1Sk_SfGKJlz_eW2y1-39" style="edgeStyle=none;html=1;exitX=0.5;exitY=1;exitDx=0;exitDy=0;entryX=0.5;entryY=0;entryDx=0;entryDy=0;" edge="1" parent="1" source="Q9y1Sk_SfGKJlz_eW2y1-36" target="Q9y1Sk_SfGKJlz_eW2y1-38">
                    <mxGeometry relative="1" as="geometry"/>
                </mxCell>
                <mxCell id="Q9y1Sk_SfGKJlz_eW2y1-36" value="Installare OpenSSL" style="rounded=1;whiteSpace=wrap;html=1;fillColor=#fff2cc;strokeColor=#d6b656;" vertex="1" parent="1">
                    <mxGeometry x="615" y="550" width="120" height="60" as="geometry"/>
                </mxCell>
                <mxCell id="Q9y1Sk_SfGKJlz_eW2y1-42" style="edgeStyle=none;html=1;exitX=0.5;exitY=1;exitDx=0;exitDy=0;entryX=0.5;entryY=0;entryDx=0;entryDy=0;" edge="1" parent="1" source="24" target="25">
                    <mxGeometry relative="1" as="geometry"/>
                </mxCell>
                <mxCell id="24" value="Creare CSS" style="rounded=1;whiteSpace=wrap;html=1;fillColor=#ffe6cc;strokeColor=#d79b00;" vertex="1" parent="1">
                    <mxGeometry x="790" y="330" width="120" height="60" as="geometry"/>
                </mxCell>
                <mxCell id="Q9y1Sk_SfGKJlz_eW2y1-43" style="edgeStyle=none;html=1;exitX=0.5;exitY=1;exitDx=0;exitDy=0;" edge="1" parent="1" source="25" target="Q9y1Sk_SfGKJlz_eW2y1-40">
                    <mxGeometry relative="1" as="geometry"/>
                </mxCell>
                <mxCell id="25" value="Creare pagine statiche" style="rounded=1;whiteSpace=wrap;html=1;fillColor=#ffe6cc;strokeColor=#d79b00;" vertex="1" parent="1">
                    <mxGeometry x="790" y="440" width="120" height="60" as="geometry"/>
                </mxCell>
                <mxCell id="Q9y1Sk_SfGKJlz_eW2y1-38" value="Installare MySQL" style="rounded=1;whiteSpace=wrap;html=1;fillColor=#fff2cc;strokeColor=#d6b656;" vertex="1" parent="1">
                    <mxGeometry x="615" y="650" width="120" height="60" as="geometry"/>
                </mxCell>
                <mxCell id="26" value="Integrazione con database" style="rounded=1;whiteSpace=wrap;html=1;fillColor=#f5f5f5;fontColor=#333333;strokeColor=#666666;" vertex="1" parent="1">
                    <mxGeometry x="950" y="440" width="120" height="60" as="geometry"/>
                </mxCell>
                <mxCell id="Q9y1Sk_SfGKJlz_eW2y1-40" value="Eventualmente se ci fosse davvero bisogno&lt;br&gt;Usare JS" style="rounded=1;whiteSpace=wrap;html=1;fillColor=#ffe6cc;strokeColor=#d79b00;" vertex="1" parent="1">
                    <mxGeometry x="790" y="550" width="120" height="60" as="geometry"/>
                </mxCell>
                <mxCell id="29" style="edgeStyle=none;html=1;entryX=0.5;entryY=0;entryDx=0;entryDy=0;" edge="1" parent="1" source="28" target="26">
                    <mxGeometry relative="1" as="geometry"/>
                </mxCell>
                <mxCell id="28" value="Servizio Web PHP" style="rounded=1;whiteSpace=wrap;html=1;fillColor=#f5f5f5;fontColor=#333333;strokeColor=#666666;" vertex="1" parent="1">
                    <mxGeometry x="950" y="330" width="120" height="60" as="geometry"/>
                </mxCell>
                <mxCell id="Q9y1Sk_SfGKJlz_eW2y1-44" value="Inserirli nel sito" style="rounded=1;whiteSpace=wrap;html=1;fillColor=#e1d5e7;strokeColor=#9673a6;" vertex="1" parent="1">
                    <mxGeometry x="1260" y="420" width="120" height="60" as="geometry"/>
                </mxCell>
            </root>
        </mxGraphModel>
    </diagram>
</mxfile>